<mxfile host="app.diagrams.net" modified="2023-06-12T18:21:32.656Z" agent="Mozilla/5.0 (Windows NT 10.0; Win64; x64) AppleWebKit/537.36 (KHTML, like Gecko) Chrome/109.0.0.0 Safari/537.36" etag="nYH8g0mo7C9GJ2O5BUMT" version="21.3.8" type="google">
  <diagram id="PM97Arz_t_PV3S8-Oa46" name="Página-1">
    <mxGraphModel grid="1" page="1" gridSize="10" guides="1" tooltips="1" connect="1" arrows="1" fold="1" pageScale="1" pageWidth="2100" pageHeight="2000" math="0" shadow="0">
      <root>
        <mxCell id="0" />
        <mxCell id="1" parent="0" />
        <mxCell id="xIkOduNl5AUU66lp3AHa-16" style="edgeStyle=none;rounded=0;orthogonalLoop=1;jettySize=auto;html=1;fontSize=9;entryX=0;entryY=0.25;entryDx=0;entryDy=0;" edge="1" parent="1" target="xIkOduNl5AUU66lp3AHa-24">
          <mxGeometry relative="1" as="geometry">
            <mxPoint x="750" y="208.24" as="targetPoint" />
            <mxPoint x="610" y="218" as="sourcePoint" />
            <Array as="points" />
          </mxGeometry>
        </mxCell>
        <mxCell id="xIkOduNl5AUU66lp3AHa-25" value="INFORMACIÓN USUARIOS" style="edgeLabel;html=1;align=center;verticalAlign=middle;resizable=0;points=[];fontSize=11;" connectable="0" vertex="1" parent="xIkOduNl5AUU66lp3AHa-16">
          <mxGeometry x="0.074" y="1" relative="1" as="geometry">
            <mxPoint x="-7" y="1" as="offset" />
          </mxGeometry>
        </mxCell>
        <mxCell id="FWfu6WNcgX2FTxLPgsbS-2" value="GESTIONAR&amp;nbsp;&lt;br&gt;JARDÍN" style="ellipse;whiteSpace=wrap;html=1;" vertex="1" parent="1">
          <mxGeometry x="460" y="195.62" width="170" height="108.76" as="geometry" />
        </mxCell>
        <mxCell id="FWfu6WNcgX2FTxLPgsbS-9" value="0" style="text;html=1;strokeColor=none;fillColor=none;align=center;verticalAlign=middle;whiteSpace=wrap;rounded=0;" vertex="1" parent="1">
          <mxGeometry x="530" y="205.24" width="30" height="10" as="geometry" />
        </mxCell>
        <mxCell id="CnbhZ-RmkQytlQboRpyD-7" value="" style="group" connectable="0" vertex="1" parent="1">
          <mxGeometry x="1290" y="277" width="120" height="80" as="geometry" />
        </mxCell>
        <mxCell id="CnbhZ-RmkQytlQboRpyD-8" value="GESTIONAR USUARIOS" style="ellipse;whiteSpace=wrap;html=1;" vertex="1" parent="CnbhZ-RmkQytlQboRpyD-7">
          <mxGeometry width="120" height="80" as="geometry" />
        </mxCell>
        <mxCell id="CnbhZ-RmkQytlQboRpyD-9" value="1.0" style="text;html=1;strokeColor=none;fillColor=none;align=center;verticalAlign=middle;whiteSpace=wrap;rounded=0;" vertex="1" parent="CnbhZ-RmkQytlQboRpyD-7">
          <mxGeometry x="45" y="10" width="30" height="10" as="geometry" />
        </mxCell>
        <mxCell id="CnbhZ-RmkQytlQboRpyD-10" style="rounded=0;orthogonalLoop=1;jettySize=auto;html=1;exitX=0;exitY=0.5;exitDx=0;exitDy=0;edgeStyle=orthogonalEdgeStyle;curved=1;" edge="1" parent="1" source="CnbhZ-RmkQytlQboRpyD-4">
          <mxGeometry relative="1" as="geometry">
            <mxPoint x="1510" y="293.375" as="sourcePoint" />
            <mxPoint x="1420" y="307" as="targetPoint" />
            <Array as="points">
              <mxPoint x="1560" y="293" />
              <mxPoint x="1460" y="293" />
              <mxPoint x="1460" y="307" />
            </Array>
          </mxGeometry>
        </mxCell>
        <mxCell id="CnbhZ-RmkQytlQboRpyD-20" style="rounded=0;orthogonalLoop=1;jettySize=auto;html=1;fontSize=17;edgeStyle=orthogonalEdgeStyle;curved=1;exitX=0;exitY=1;exitDx=0;exitDy=0;entryX=0;entryY=0.25;entryDx=0;entryDy=0;" edge="1" parent="1">
          <mxGeometry relative="1" as="geometry">
            <mxPoint x="1200" y="433.0999999999999" as="targetPoint" />
            <Array as="points">
              <mxPoint x="1308" y="347" />
              <mxPoint x="1170" y="347" />
              <mxPoint x="1170" y="433" />
            </Array>
            <mxPoint x="1307.5735931288073" y="345.2842712474619" as="sourcePoint" />
          </mxGeometry>
        </mxCell>
        <mxCell id="CnbhZ-RmkQytlQboRpyD-22" value="" style="group" connectable="0" vertex="1" parent="1">
          <mxGeometry x="1630" y="377" width="110" height="30" as="geometry" />
        </mxCell>
        <mxCell id="CnbhZ-RmkQytlQboRpyD-23" value="" style="shape=partialRectangle;whiteSpace=wrap;html=1;left=0;right=0;fillColor=none;fontSize=24;" vertex="1" parent="CnbhZ-RmkQytlQboRpyD-22">
          <mxGeometry x="11" width="88" height="30" as="geometry" />
        </mxCell>
        <mxCell id="CnbhZ-RmkQytlQboRpyD-24" value="ACUDIENTE" style="text;html=1;strokeColor=none;fillColor=none;align=center;verticalAlign=middle;whiteSpace=wrap;rounded=0;" vertex="1" parent="CnbhZ-RmkQytlQboRpyD-22">
          <mxGeometry y="7.5" width="110.00000000000003" height="15" as="geometry" />
        </mxCell>
        <mxCell id="xIkOduNl5AUU66lp3AHa-3" style="rounded=0;orthogonalLoop=1;jettySize=auto;html=1;entryX=0.041;entryY=0.27;entryDx=0;entryDy=0;fontSize=10;exitX=1;exitY=0.25;exitDx=0;exitDy=0;entryPerimeter=0;" edge="1" parent="1" source="CnbhZ-RmkQytlQboRpyD-25" target="FWfu6WNcgX2FTxLPgsbS-2">
          <mxGeometry relative="1" as="geometry" />
        </mxCell>
        <mxCell id="YfIU_cfu1i6WQ_l_rjaA-1" value="&lt;font style=&quot;vertical-align: inherit;&quot;&gt;&lt;font style=&quot;vertical-align: inherit;&quot;&gt;GESTIONAR USUARIOS&lt;/font&gt;&lt;/font&gt;" style="edgeLabel;html=1;align=center;verticalAlign=middle;resizable=0;points=[];" connectable="0" vertex="1" parent="xIkOduNl5AUU66lp3AHa-3">
          <mxGeometry x="-0.1578" y="-1" relative="1" as="geometry">
            <mxPoint as="offset" />
          </mxGeometry>
        </mxCell>
        <mxCell id="xIkOduNl5AUU66lp3AHa-13" style="edgeStyle=none;rounded=0;orthogonalLoop=1;jettySize=auto;html=1;fontSize=9;exitX=1;exitY=0.5;exitDx=0;exitDy=0;entryX=0;entryY=0.5;entryDx=0;entryDy=0;" edge="1" parent="1" source="CnbhZ-RmkQytlQboRpyD-25" target="FWfu6WNcgX2FTxLPgsbS-2">
          <mxGeometry relative="1" as="geometry">
            <mxPoint x="240" y="258" as="sourcePoint" />
            <mxPoint x="460" y="258" as="targetPoint" />
          </mxGeometry>
        </mxCell>
        <mxCell id="xIkOduNl5AUU66lp3AHa-14" value="&lt;font style=&quot;vertical-align: inherit;&quot;&gt;&lt;font style=&quot;vertical-align: inherit;&quot;&gt;SOLICITAR CUPOS&lt;/font&gt;&lt;/font&gt;" style="edgeLabel;html=1;align=center;verticalAlign=middle;resizable=0;points=[];fontSize=11;" connectable="0" vertex="1" parent="xIkOduNl5AUU66lp3AHa-13">
          <mxGeometry x="-0.2069" y="-1" relative="1" as="geometry">
            <mxPoint x="10" as="offset" />
          </mxGeometry>
        </mxCell>
        <mxCell id="CnbhZ-RmkQytlQboRpyD-25" value="&lt;font style=&quot;font-size: 12px;&quot;&gt;&lt;b&gt;USUARIOS&lt;/b&gt;&lt;/font&gt;" style="rounded=0;whiteSpace=wrap;html=1;fontSize=9;" vertex="1" parent="1">
          <mxGeometry x="40" y="200.24" width="200" height="99.76" as="geometry" />
        </mxCell>
        <mxCell id="CnbhZ-RmkQytlQboRpyD-31" value="" style="group" connectable="0" vertex="1" parent="1">
          <mxGeometry x="1770" y="257" width="120" height="110" as="geometry" />
        </mxCell>
        <mxCell id="CnbhZ-RmkQytlQboRpyD-32" value="GESTIONAR TRÁMITES" style="ellipse;whiteSpace=wrap;html=1;" vertex="1" parent="CnbhZ-RmkQytlQboRpyD-31">
          <mxGeometry width="120" height="77.19298245614036" as="geometry" />
        </mxCell>
        <mxCell id="CnbhZ-RmkQytlQboRpyD-33" value="2.0" style="text;html=1;strokeColor=none;fillColor=none;align=center;verticalAlign=middle;whiteSpace=wrap;rounded=0;" vertex="1" parent="CnbhZ-RmkQytlQboRpyD-31">
          <mxGeometry x="45" y="9.649122807017545" width="30" height="9.649122807017545" as="geometry" />
        </mxCell>
        <mxCell id="CnbhZ-RmkQytlQboRpyD-34" value="" style="edgeStyle=orthogonalEdgeStyle;rounded=0;orthogonalLoop=1;jettySize=auto;html=1;fontSize=22;curved=1;exitX=0.5;exitY=0;exitDx=0;exitDy=0;" edge="1" parent="1" source="CnbhZ-RmkQytlQboRpyD-23">
          <mxGeometry relative="1" as="geometry">
            <mxPoint x="1720" y="347" as="sourcePoint" />
            <mxPoint x="1770" y="317" as="targetPoint" />
          </mxGeometry>
        </mxCell>
        <mxCell id="CnbhZ-RmkQytlQboRpyD-37" value="" style="group" connectable="0" vertex="1" parent="1">
          <mxGeometry x="1200" y="418.76" width="110" height="38.24" as="geometry" />
        </mxCell>
        <mxCell id="CnbhZ-RmkQytlQboRpyD-38" value="" style="shape=partialRectangle;whiteSpace=wrap;html=1;left=0;right=0;fillColor=none;fontSize=24;" vertex="1" parent="CnbhZ-RmkQytlQboRpyD-37">
          <mxGeometry x="11" width="88" height="38.24" as="geometry" />
        </mxCell>
        <mxCell id="CnbhZ-RmkQytlQboRpyD-39" value="PERSONAL" style="text;html=1;strokeColor=none;fillColor=none;align=center;verticalAlign=middle;whiteSpace=wrap;rounded=0;" vertex="1" parent="CnbhZ-RmkQytlQboRpyD-37">
          <mxGeometry y="9.56" width="110.00000000000001" height="19.12" as="geometry" />
        </mxCell>
        <mxCell id="CnbhZ-RmkQytlQboRpyD-40" style="edgeStyle=orthogonalEdgeStyle;rounded=0;orthogonalLoop=1;jettySize=auto;html=1;fontSize=15;exitX=1;exitY=0.5;exitDx=0;exitDy=0;curved=1;" edge="1" parent="1">
          <mxGeometry relative="1" as="geometry">
            <mxPoint x="1310" y="441.76" as="sourcePoint" />
            <mxPoint x="1350" y="364.5" as="targetPoint" />
          </mxGeometry>
        </mxCell>
        <mxCell id="QK5G6wsZUQqB0Hkq3cQ--18" value="INFO PERSONAL" style="edgeLabel;html=1;align=center;verticalAlign=middle;resizable=0;points=[];" connectable="0" vertex="1" parent="CnbhZ-RmkQytlQboRpyD-40">
          <mxGeometry x="0.1277" y="4" relative="1" as="geometry">
            <mxPoint y="-9" as="offset" />
          </mxGeometry>
        </mxCell>
        <mxCell id="CnbhZ-RmkQytlQboRpyD-4" value="ESTUDIANTE" style="text;html=1;strokeColor=none;fillColor=none;align=center;verticalAlign=middle;whiteSpace=wrap;rounded=0;" vertex="1" parent="1">
          <mxGeometry x="1560" y="290.25" width="100.00000000000001" height="12.5" as="geometry" />
        </mxCell>
        <mxCell id="CnbhZ-RmkQytlQboRpyD-57" style="edgeStyle=orthogonalEdgeStyle;rounded=0;orthogonalLoop=1;jettySize=auto;html=1;fontSize=10;exitX=1;exitY=0.5;exitDx=0;exitDy=0;curved=1;" edge="1" parent="1" source="CnbhZ-RmkQytlQboRpyD-4">
          <mxGeometry relative="1" as="geometry">
            <mxPoint x="1770" y="277" as="targetPoint" />
            <Array as="points">
              <mxPoint x="1660" y="277" />
            </Array>
          </mxGeometry>
        </mxCell>
        <mxCell id="CnbhZ-RmkQytlQboRpyD-65" value="" style="group" connectable="0" vertex="1" parent="1">
          <mxGeometry x="1950" y="340" width="110" height="30" as="geometry" />
        </mxCell>
        <mxCell id="CnbhZ-RmkQytlQboRpyD-66" value="" style="shape=partialRectangle;whiteSpace=wrap;html=1;left=0;right=0;fillColor=none;fontSize=24;" vertex="1" parent="CnbhZ-RmkQytlQboRpyD-65">
          <mxGeometry x="11" width="88" height="30" as="geometry" />
        </mxCell>
        <mxCell id="CnbhZ-RmkQytlQboRpyD-67" value="CITACION" style="text;html=1;strokeColor=none;fillColor=none;align=center;verticalAlign=middle;whiteSpace=wrap;rounded=0;" vertex="1" parent="CnbhZ-RmkQytlQboRpyD-65">
          <mxGeometry y="7.5" width="110.00000000000001" height="15" as="geometry" />
        </mxCell>
        <mxCell id="CnbhZ-RmkQytlQboRpyD-69" style="edgeStyle=orthogonalEdgeStyle;curved=1;rounded=0;orthogonalLoop=1;jettySize=auto;html=1;fontSize=10;entryX=0;entryY=0.25;entryDx=0;entryDy=0;exitX=0.5;exitY=1;exitDx=0;exitDy=0;" edge="1" parent="1" source="CnbhZ-RmkQytlQboRpyD-32" target="CnbhZ-RmkQytlQboRpyD-67">
          <mxGeometry relative="1" as="geometry">
            <mxPoint x="1950" y="325" as="targetPoint" />
            <Array as="points">
              <mxPoint x="1830" y="351" />
              <mxPoint x="1870" y="351" />
              <mxPoint x="1870" y="350" />
              <mxPoint x="1940" y="350" />
              <mxPoint x="1940" y="351" />
            </Array>
            <mxPoint x="1820" y="380" as="sourcePoint" />
          </mxGeometry>
        </mxCell>
        <mxCell id="CnbhZ-RmkQytlQboRpyD-3" value="" style="shape=partialRectangle;whiteSpace=wrap;html=1;left=0;right=0;fillColor=none;fontSize=24;" vertex="1" parent="1">
          <mxGeometry x="1570" y="284" width="80" height="25" as="geometry" />
        </mxCell>
        <mxCell id="CnbhZ-RmkQytlQboRpyD-83" value="" style="group" connectable="0" vertex="1" parent="1">
          <mxGeometry x="731.5" y="779" width="120" height="80" as="geometry" />
        </mxCell>
        <mxCell id="CnbhZ-RmkQytlQboRpyD-84" value="&lt;font style=&quot;vertical-align: inherit;&quot;&gt;&lt;font style=&quot;vertical-align: inherit;&quot;&gt;REGISTRAR&lt;br&gt;PERSONAL&lt;br&gt;&lt;/font&gt;&lt;/font&gt;" style="ellipse;whiteSpace=wrap;html=1;" vertex="1" parent="CnbhZ-RmkQytlQboRpyD-83">
          <mxGeometry width="120" height="80" as="geometry" />
        </mxCell>
        <mxCell id="CnbhZ-RmkQytlQboRpyD-85" value="1.2" style="text;html=1;strokeColor=none;fillColor=none;align=center;verticalAlign=middle;whiteSpace=wrap;rounded=0;" vertex="1" parent="CnbhZ-RmkQytlQboRpyD-83">
          <mxGeometry x="45" y="10" width="30" height="10" as="geometry" />
        </mxCell>
        <mxCell id="CnbhZ-RmkQytlQboRpyD-86" value="" style="group;verticalAlign=top;" connectable="0" vertex="1" parent="1">
          <mxGeometry x="239" y="779" width="120" height="80" as="geometry" />
        </mxCell>
        <mxCell id="CnbhZ-RmkQytlQboRpyD-87" value="&lt;font style=&quot;vertical-align: inherit;&quot;&gt;&lt;font style=&quot;vertical-align: inherit;&quot;&gt;&lt;font style=&quot;vertical-align: inherit;&quot;&gt;&lt;/font&gt;&lt;br&gt;&lt;/font&gt;&lt;/font&gt;&lt;font style=&quot;vertical-align: inherit;&quot;&gt;&lt;font style=&quot;vertical-align: inherit;&quot;&gt;REGISTRAR&lt;br&gt;&lt;/font&gt;&lt;/font&gt;&lt;font style=&quot;vertical-align: inherit;&quot;&gt;&lt;font style=&quot;vertical-align: inherit;&quot;&gt;ESTUDIANTES&lt;/font&gt;&lt;/font&gt;" style="ellipse;whiteSpace=wrap;html=1;" vertex="1" parent="CnbhZ-RmkQytlQboRpyD-86">
          <mxGeometry width="120" height="80" as="geometry" />
        </mxCell>
        <mxCell id="CnbhZ-RmkQytlQboRpyD-88" value="1.1" style="text;html=1;strokeColor=none;fillColor=none;align=center;verticalAlign=middle;whiteSpace=wrap;rounded=0;" vertex="1" parent="CnbhZ-RmkQytlQboRpyD-86">
          <mxGeometry x="45" y="16" width="30" height="10" as="geometry" />
        </mxCell>
        <mxCell id="QK5G6wsZUQqB0Hkq3cQ--4" value="" style="edgeStyle=orthogonalEdgeStyle;rounded=0;orthogonalLoop=1;jettySize=auto;html=1;curved=1;" edge="1" parent="1" source="QK5G6wsZUQqB0Hkq3cQ--2" target="CnbhZ-RmkQytlQboRpyD-87">
          <mxGeometry relative="1" as="geometry" />
        </mxCell>
        <mxCell id="GfI7PO5L6H_3CAIzGEhE-2" value="INFO&lt;br&gt;ESTUDIANTE" style="edgeLabel;html=1;align=center;verticalAlign=middle;resizable=0;points=[];" connectable="0" vertex="1" parent="QK5G6wsZUQqB0Hkq3cQ--4">
          <mxGeometry x="-0.1387" y="-5" relative="1" as="geometry">
            <mxPoint y="2" as="offset" />
          </mxGeometry>
        </mxCell>
        <mxCell id="QK5G6wsZUQqB0Hkq3cQ--2" value="ESTUDIANTE" style="text;html=1;strokeColor=none;fillColor=none;align=center;verticalAlign=middle;whiteSpace=wrap;rounded=0;" vertex="1" parent="1">
          <mxGeometry x="129" y="730.25" width="100.00000000000001" height="12.5" as="geometry" />
        </mxCell>
        <mxCell id="YfIU_cfu1i6WQ_l_rjaA-22" style="edgeStyle=orthogonalEdgeStyle;curved=1;rounded=0;orthogonalLoop=1;jettySize=auto;html=1;fontSize=11;entryX=0;entryY=0.5;entryDx=0;entryDy=0;exitX=0.5;exitY=0;exitDx=0;exitDy=0;" edge="1" parent="1" source="QK5G6wsZUQqB0Hkq3cQ--3" target="YfIU_cfu1i6WQ_l_rjaA-14">
          <mxGeometry relative="1" as="geometry">
            <mxPoint x="539" y="569" as="targetPoint" />
            <Array as="points">
              <mxPoint x="179" y="529" />
            </Array>
          </mxGeometry>
        </mxCell>
        <mxCell id="YfIU_cfu1i6WQ_l_rjaA-23" value="&lt;font style=&quot;vertical-align: inherit;&quot;&gt;&lt;font style=&quot;vertical-align: inherit;&quot;&gt;INFO&lt;br&gt;ESTUDIANTE&lt;br&gt;&lt;/font&gt;&lt;/font&gt;" style="edgeLabel;html=1;align=center;verticalAlign=middle;resizable=0;points=[];fontSize=11;" connectable="0" vertex="1" parent="YfIU_cfu1i6WQ_l_rjaA-22">
          <mxGeometry x="0.0638" y="3" relative="1" as="geometry">
            <mxPoint x="34" y="46" as="offset" />
          </mxGeometry>
        </mxCell>
        <mxCell id="QK5G6wsZUQqB0Hkq3cQ--3" value="" style="shape=partialRectangle;whiteSpace=wrap;html=1;left=0;right=0;fillColor=none;fontSize=24;" vertex="1" parent="1">
          <mxGeometry x="139" y="724" width="80" height="25" as="geometry" />
        </mxCell>
        <mxCell id="QK5G6wsZUQqB0Hkq3cQ--5" value="" style="group" connectable="0" vertex="1" parent="1">
          <mxGeometry x="841.5" y="709" width="110" height="30" as="geometry" />
        </mxCell>
        <mxCell id="QK5G6wsZUQqB0Hkq3cQ--6" value="" style="shape=partialRectangle;whiteSpace=wrap;html=1;left=0;right=0;fillColor=none;fontSize=24;" vertex="1" parent="QK5G6wsZUQqB0Hkq3cQ--5">
          <mxGeometry x="11" width="88" height="30" as="geometry" />
        </mxCell>
        <mxCell id="QK5G6wsZUQqB0Hkq3cQ--7" value="PERSONAL" style="text;html=1;strokeColor=none;fillColor=none;align=center;verticalAlign=middle;whiteSpace=wrap;rounded=0;" vertex="1" parent="QK5G6wsZUQqB0Hkq3cQ--5">
          <mxGeometry y="7.5" width="110.00000000000001" height="15" as="geometry" />
        </mxCell>
        <mxCell id="QK5G6wsZUQqB0Hkq3cQ--8" style="edgeStyle=orthogonalEdgeStyle;curved=1;rounded=0;orthogonalLoop=1;jettySize=auto;html=1;entryX=0.5;entryY=0;entryDx=0;entryDy=0;" edge="1" parent="1" source="QK5G6wsZUQqB0Hkq3cQ--7" target="CnbhZ-RmkQytlQboRpyD-84">
          <mxGeometry relative="1" as="geometry">
            <Array as="points">
              <mxPoint x="791.5" y="724" />
            </Array>
          </mxGeometry>
        </mxCell>
        <mxCell id="GfI7PO5L6H_3CAIzGEhE-1" value="INFO&lt;br&gt;PERSONAL" style="edgeLabel;html=1;align=center;verticalAlign=middle;resizable=0;points=[];" connectable="0" vertex="1" parent="QK5G6wsZUQqB0Hkq3cQ--8">
          <mxGeometry x="0.181" y="9" relative="1" as="geometry">
            <mxPoint x="1" y="9" as="offset" />
          </mxGeometry>
        </mxCell>
        <mxCell id="QK5G6wsZUQqB0Hkq3cQ--19" value="INFO&lt;br&gt;&amp;nbsp;ESTUDIANTE" style="edgeLabel;html=1;align=center;verticalAlign=middle;resizable=0;points=[];rotation=0;" connectable="0" vertex="1" parent="1">
          <mxGeometry x="1500.001800601344" y="296.49770834629396" as="geometry" />
        </mxCell>
        <mxCell id="QK5G6wsZUQqB0Hkq3cQ--20" value="INFO&lt;br&gt;&amp;nbsp;ESTUDIANTE" style="edgeLabel;html=1;align=center;verticalAlign=middle;resizable=0;points=[];rotation=0;" connectable="0" vertex="1" parent="1">
          <mxGeometry x="1710.001800601344" y="276.99770834629396" as="geometry" />
        </mxCell>
        <mxCell id="QK5G6wsZUQqB0Hkq3cQ--22" value="INFO&lt;br&gt;ACUDIENTE" style="edgeLabel;html=1;align=center;verticalAlign=middle;resizable=0;points=[];rotation=0;" connectable="0" vertex="1" parent="1">
          <mxGeometry x="1730.001800601344" y="352.74770834629396" as="geometry" />
        </mxCell>
        <mxCell id="QK5G6wsZUQqB0Hkq3cQ--25" value="INFO &lt;br&gt;CITACIONES" style="edgeLabel;html=1;align=center;verticalAlign=middle;resizable=0;points=[];rotation=0;" connectable="0" vertex="1" parent="1">
          <mxGeometry x="1875.001800601344" y="349.99770834629396" as="geometry">
            <mxPoint x="2" y="5" as="offset" />
          </mxGeometry>
        </mxCell>
        <mxCell id="pNjpQ47pzgb56b5YLkKA-1" style="edgeStyle=orthogonalEdgeStyle;rounded=0;orthogonalLoop=1;jettySize=auto;html=1;curved=1;" edge="1" parent="1" source="CnbhZ-RmkQytlQboRpyD-8">
          <mxGeometry relative="1" as="geometry">
            <mxPoint x="1600" y="267" as="targetPoint" />
            <Array as="points">
              <mxPoint x="1350" y="237" />
              <mxPoint x="1600" y="237" />
            </Array>
          </mxGeometry>
        </mxCell>
        <mxCell id="pNjpQ47pzgb56b5YLkKA-3" value="&lt;font style=&quot;font-size: 15px;&quot;&gt;NIVEL 0: DIAGRAMA DE CONTEXTO&lt;/font&gt;" style="rounded=1;whiteSpace=wrap;html=1;" vertex="1" parent="1">
          <mxGeometry x="200" y="79.99999999999999" width="286" height="40" as="geometry" />
        </mxCell>
        <mxCell id="pNjpQ47pzgb56b5YLkKA-4" value="&lt;span style=&quot;font-size: 15px;&quot;&gt;NIVEL 1 :GESTIONAR JARDÍN&lt;/span&gt;" style="rounded=1;whiteSpace=wrap;html=1;" vertex="1" parent="1">
          <mxGeometry x="1200" y="80" width="230" height="40" as="geometry" />
        </mxCell>
        <mxCell id="pNjpQ47pzgb56b5YLkKA-5" value="&lt;span style=&quot;font-size: 15px;&quot;&gt;NIVEL 2: PROCESO 1.0 GESTIONAR USUARIOS&lt;/span&gt;" style="rounded=1;whiteSpace=wrap;html=1;" vertex="1" parent="1">
          <mxGeometry x="309" y="400" width="350" height="40" as="geometry" />
        </mxCell>
        <mxCell id="pNjpQ47pzgb56b5YLkKA-6" value="&lt;span style=&quot;font-size: 15px;&quot;&gt;NIVEL 2: PROCESO 2.0 GESTIONAR TRÁMITES&lt;/span&gt;" style="rounded=1;whiteSpace=wrap;html=1;" vertex="1" parent="1">
          <mxGeometry x="238" y="1242" width="350" height="40" as="geometry" />
        </mxCell>
        <mxCell id="pNjpQ47pzgb56b5YLkKA-13" style="edgeStyle=orthogonalEdgeStyle;curved=1;rounded=0;orthogonalLoop=1;jettySize=auto;html=1;exitX=1;exitY=0;exitDx=0;exitDy=0;entryX=0;entryY=0.5;entryDx=0;entryDy=0;fontSize=15;" edge="1" parent="1" source="CnbhZ-RmkQytlQboRpyD-87" target="ASO6ONYbp6WQh1iD9IR5-1">
          <mxGeometry relative="1" as="geometry">
            <mxPoint x="373.9999999999998" y="679" as="targetPoint" />
          </mxGeometry>
        </mxCell>
        <mxCell id="ASO6ONYbp6WQh1iD9IR5-5" value="&lt;font style=&quot;font-size: 10px;&quot;&gt;ESTUDIATES&lt;br&gt;RESGISTRADOS&lt;/font&gt;" style="edgeLabel;html=1;align=center;verticalAlign=middle;resizable=0;points=[];fontSize=15;" connectable="0" vertex="1" parent="pNjpQ47pzgb56b5YLkKA-13">
          <mxGeometry x="0.2131" y="6" relative="1" as="geometry">
            <mxPoint y="20" as="offset" />
          </mxGeometry>
        </mxCell>
        <mxCell id="pNjpQ47pzgb56b5YLkKA-14" style="edgeStyle=orthogonalEdgeStyle;curved=1;rounded=0;orthogonalLoop=1;jettySize=auto;html=1;exitX=0;exitY=0;exitDx=0;exitDy=0;fontSize=15;" edge="1" parent="1" source="CnbhZ-RmkQytlQboRpyD-84">
          <mxGeometry relative="1" as="geometry">
            <Array as="points">
              <mxPoint x="762" y="791" />
              <mxPoint x="762" y="739" />
            </Array>
            <mxPoint x="589" y="739" as="targetPoint" />
          </mxGeometry>
        </mxCell>
        <mxCell id="ASO6ONYbp6WQh1iD9IR5-6" value="&lt;font style=&quot;font-size: 10px;&quot;&gt;PERSONAL&amp;nbsp;&lt;br&gt;REGISTRADO&lt;/font&gt;" style="edgeLabel;html=1;align=center;verticalAlign=middle;resizable=0;points=[];fontSize=15;" connectable="0" vertex="1" parent="pNjpQ47pzgb56b5YLkKA-14">
          <mxGeometry x="0.105" y="1" relative="1" as="geometry">
            <mxPoint as="offset" />
          </mxGeometry>
        </mxCell>
        <mxCell id="l0qB8RH0WvTVi8cwV6Hn-16" value="CURSO" style="text;html=1;strokeColor=none;fillColor=none;align=center;verticalAlign=middle;whiteSpace=wrap;rounded=0;" vertex="1" parent="1">
          <mxGeometry x="49" y="795.25" width="100.00000000000001" height="12.5" as="geometry" />
        </mxCell>
        <mxCell id="l0qB8RH0WvTVi8cwV6Hn-18" style="edgeStyle=orthogonalEdgeStyle;curved=1;rounded=0;orthogonalLoop=1;jettySize=auto;html=1;exitX=1;exitY=0.5;exitDx=0;exitDy=0;" edge="1" parent="1" source="l0qB8RH0WvTVi8cwV6Hn-17" target="CnbhZ-RmkQytlQboRpyD-87">
          <mxGeometry relative="1" as="geometry" />
        </mxCell>
        <mxCell id="l0qB8RH0WvTVi8cwV6Hn-20" value="INFO&lt;br&gt;CURSO" style="edgeLabel;html=1;align=center;verticalAlign=middle;resizable=0;points=[];" connectable="0" vertex="1" parent="l0qB8RH0WvTVi8cwV6Hn-18">
          <mxGeometry x="-0.3875" y="-3" relative="1" as="geometry">
            <mxPoint x="14" y="3" as="offset" />
          </mxGeometry>
        </mxCell>
        <mxCell id="l0qB8RH0WvTVi8cwV6Hn-17" value="" style="shape=partialRectangle;whiteSpace=wrap;html=1;left=0;right=0;fillColor=none;fontSize=24;" vertex="1" parent="1">
          <mxGeometry x="59" y="789" width="80" height="25" as="geometry" />
        </mxCell>
        <mxCell id="l0qB8RH0WvTVi8cwV6Hn-21" value="CURSO" style="text;html=1;strokeColor=none;fillColor=none;align=center;verticalAlign=middle;whiteSpace=wrap;rounded=0;" vertex="1" parent="1">
          <mxGeometry x="941.5" y="770.25" width="100.00000000000001" height="12.5" as="geometry" />
        </mxCell>
        <mxCell id="l0qB8RH0WvTVi8cwV6Hn-23" style="edgeStyle=orthogonalEdgeStyle;curved=1;rounded=0;orthogonalLoop=1;jettySize=auto;html=1;exitX=0;exitY=0.5;exitDx=0;exitDy=0;entryX=1;entryY=0.5;entryDx=0;entryDy=0;" edge="1" parent="1" source="l0qB8RH0WvTVi8cwV6Hn-22" target="CnbhZ-RmkQytlQboRpyD-84">
          <mxGeometry relative="1" as="geometry" />
        </mxCell>
        <mxCell id="l0qB8RH0WvTVi8cwV6Hn-24" value="INFO&amp;nbsp;&lt;br&gt;CURSO" style="edgeLabel;html=1;align=center;verticalAlign=middle;resizable=0;points=[];" connectable="0" vertex="1" parent="l0qB8RH0WvTVi8cwV6Hn-23">
          <mxGeometry x="-0.1509" y="7" relative="1" as="geometry">
            <mxPoint y="1" as="offset" />
          </mxGeometry>
        </mxCell>
        <mxCell id="l0qB8RH0WvTVi8cwV6Hn-22" value="" style="shape=partialRectangle;whiteSpace=wrap;html=1;left=0;right=0;fillColor=none;fontSize=24;" vertex="1" parent="1">
          <mxGeometry x="951.5" y="764" width="80" height="25" as="geometry" />
        </mxCell>
        <mxCell id="l0qB8RH0WvTVi8cwV6Hn-28" value="CURSO" style="text;html=1;strokeColor=none;fillColor=none;align=center;verticalAlign=middle;whiteSpace=wrap;rounded=0;" vertex="1" parent="1">
          <mxGeometry x="1255" y="174.25" width="100.00000000000001" height="12.5" as="geometry" />
        </mxCell>
        <mxCell id="l0qB8RH0WvTVi8cwV6Hn-31" style="edgeStyle=orthogonalEdgeStyle;curved=1;rounded=0;orthogonalLoop=1;jettySize=auto;html=1;exitX=1;exitY=0.5;exitDx=0;exitDy=0;entryX=0;entryY=0;entryDx=0;entryDy=0;" edge="1" parent="1" source="l0qB8RH0WvTVi8cwV6Hn-29" target="CnbhZ-RmkQytlQboRpyD-8">
          <mxGeometry relative="1" as="geometry" />
        </mxCell>
        <mxCell id="l0qB8RH0WvTVi8cwV6Hn-32" value="INFO&lt;br&gt;CURSO" style="edgeLabel;html=1;align=center;verticalAlign=middle;resizable=0;points=[];" connectable="0" vertex="1" parent="l0qB8RH0WvTVi8cwV6Hn-31">
          <mxGeometry x="-0.2375" y="-8" relative="1" as="geometry">
            <mxPoint x="-18" y="9" as="offset" />
          </mxGeometry>
        </mxCell>
        <mxCell id="l0qB8RH0WvTVi8cwV6Hn-29" value="" style="shape=partialRectangle;whiteSpace=wrap;html=1;left=0;right=0;fillColor=none;fontSize=24;" vertex="1" parent="1">
          <mxGeometry x="1265" y="168" width="80" height="25" as="geometry" />
        </mxCell>
        <mxCell id="j3uDoGHFEFbZuuikmRDn-36" style="edgeStyle=orthogonalEdgeStyle;curved=1;rounded=0;orthogonalLoop=1;jettySize=auto;html=1;exitX=0.5;exitY=1;exitDx=0;exitDy=0;entryX=1;entryY=0.75;entryDx=0;entryDy=0;" edge="1" parent="1">
          <mxGeometry relative="1" as="geometry">
            <Array as="points">
              <mxPoint x="1640" y="1459" />
              <mxPoint x="1930" y="1459" />
              <mxPoint x="1930" y="1293" />
            </Array>
            <mxPoint x="1640" y="1429" as="sourcePoint" />
          </mxGeometry>
        </mxCell>
        <mxCell id="j3uDoGHFEFbZuuikmRDn-37" value="PERSONAL&lt;br&gt;ACTUALIZADO" style="edgeLabel;html=1;align=center;verticalAlign=middle;resizable=0;points=[];" connectable="0" vertex="1" parent="j3uDoGHFEFbZuuikmRDn-36">
          <mxGeometry x="-0.2676" y="3" relative="1" as="geometry">
            <mxPoint as="offset" />
          </mxGeometry>
        </mxCell>
        <mxCell id="xIkOduNl5AUU66lp3AHa-20" style="edgeStyle=none;rounded=0;orthogonalLoop=1;jettySize=auto;html=1;fontSize=9;exitX=0.965;exitY=0.666;exitDx=0;exitDy=0;entryX=0;entryY=0.75;entryDx=0;entryDy=0;exitPerimeter=0;" edge="1" parent="1" source="FWfu6WNcgX2FTxLPgsbS-2" target="xIkOduNl5AUU66lp3AHa-24">
          <mxGeometry relative="1" as="geometry">
            <mxPoint x="799.9999999999998" y="293" as="targetPoint" />
            <mxPoint x="630.6800000000001" y="290.50739999999996" as="sourcePoint" />
          </mxGeometry>
        </mxCell>
        <mxCell id="xIkOduNl5AUU66lp3AHa-30" value="GENERAR CITA" style="edgeLabel;html=1;align=center;verticalAlign=middle;resizable=0;points=[];fontSize=11;" connectable="0" vertex="1" parent="xIkOduNl5AUU66lp3AHa-20">
          <mxGeometry x="-0.2448" y="-1" relative="1" as="geometry">
            <mxPoint x="22" y="-1" as="offset" />
          </mxGeometry>
        </mxCell>
        <mxCell id="xIkOduNl5AUU66lp3AHa-24" value="&lt;font style=&quot;font-size: 12px;&quot;&gt;&lt;b&gt;USUARIOS&lt;/b&gt;&lt;/font&gt;" style="rounded=0;whiteSpace=wrap;html=1;fontSize=9;" vertex="1" parent="1">
          <mxGeometry x="800" y="193.24" width="200" height="99.76" as="geometry" />
        </mxCell>
        <mxCell id="YfIU_cfu1i6WQ_l_rjaA-13" value="" style="group" connectable="0" vertex="1" parent="1">
          <mxGeometry x="459" y="489" width="120" height="80" as="geometry" />
        </mxCell>
        <mxCell id="YfIU_cfu1i6WQ_l_rjaA-14" value="&lt;font style=&quot;vertical-align: inherit;&quot;&gt;&lt;font style=&quot;vertical-align: inherit;&quot;&gt;&lt;font style=&quot;vertical-align: inherit;&quot;&gt;&lt;font style=&quot;vertical-align: inherit;&quot;&gt;CAMBIAR &lt;br&gt;ESTADO&lt;br&gt;&lt;/font&gt;&lt;/font&gt;&lt;/font&gt;&lt;/font&gt;" style="ellipse;whiteSpace=wrap;html=1;" vertex="1" parent="YfIU_cfu1i6WQ_l_rjaA-13">
          <mxGeometry width="120" height="80" as="geometry" />
        </mxCell>
        <mxCell id="YfIU_cfu1i6WQ_l_rjaA-15" value="&lt;font style=&quot;vertical-align: inherit;&quot;&gt;&lt;font style=&quot;vertical-align: inherit;&quot;&gt;1.3&lt;/font&gt;&lt;/font&gt;" style="text;html=1;strokeColor=none;fillColor=none;align=center;verticalAlign=middle;whiteSpace=wrap;rounded=0;" vertex="1" parent="YfIU_cfu1i6WQ_l_rjaA-13">
          <mxGeometry x="45" y="10" width="30" height="10" as="geometry" />
        </mxCell>
        <mxCell id="YfIU_cfu1i6WQ_l_rjaA-16" value="" style="group" connectable="0" vertex="1" parent="1">
          <mxGeometry x="479" y="927.75" width="120" height="80" as="geometry" />
        </mxCell>
        <mxCell id="YfIU_cfu1i6WQ_l_rjaA-17" value="&lt;font style=&quot;vertical-align: inherit;&quot;&gt;&lt;font style=&quot;vertical-align: inherit;&quot;&gt;MODIFICAR USUARIOS&lt;br&gt;&lt;/font&gt;&lt;/font&gt;" style="ellipse;whiteSpace=wrap;html=1;" vertex="1" parent="YfIU_cfu1i6WQ_l_rjaA-16">
          <mxGeometry width="120" height="80" as="geometry" />
        </mxCell>
        <mxCell id="YfIU_cfu1i6WQ_l_rjaA-18" value="&lt;font style=&quot;vertical-align: inherit;&quot;&gt;&lt;font style=&quot;vertical-align: inherit;&quot;&gt;1.4&lt;/font&gt;&lt;/font&gt;" style="text;html=1;strokeColor=none;fillColor=none;align=center;verticalAlign=middle;whiteSpace=wrap;rounded=0;" vertex="1" parent="YfIU_cfu1i6WQ_l_rjaA-16">
          <mxGeometry x="45" y="10" width="30" height="10" as="geometry" />
        </mxCell>
        <mxCell id="YfIU_cfu1i6WQ_l_rjaA-27" style="edgeStyle=orthogonalEdgeStyle;curved=1;rounded=0;orthogonalLoop=1;jettySize=auto;html=1;entryX=1;entryY=0.5;entryDx=0;entryDy=0;fontSize=11;exitX=0.5;exitY=0;exitDx=0;exitDy=0;" edge="1" parent="1" source="QK5G6wsZUQqB0Hkq3cQ--6" target="YfIU_cfu1i6WQ_l_rjaA-14">
          <mxGeometry relative="1" as="geometry">
            <mxPoint x="734" y="709" as="sourcePoint" />
            <mxPoint x="550.52" y="679.1600000000001" as="targetPoint" />
            <Array as="points">
              <mxPoint x="897" y="529" />
            </Array>
          </mxGeometry>
        </mxCell>
        <mxCell id="YfIU_cfu1i6WQ_l_rjaA-28" value="&lt;font style=&quot;vertical-align: inherit;&quot;&gt;&lt;font style=&quot;vertical-align: inherit;&quot;&gt;INFO&lt;br&gt;PERSONAL&lt;br&gt;&lt;/font&gt;&lt;/font&gt;" style="edgeLabel;html=1;align=center;verticalAlign=middle;resizable=0;points=[];fontSize=11;" connectable="0" vertex="1" parent="YfIU_cfu1i6WQ_l_rjaA-27">
          <mxGeometry x="0.1419" relative="1" as="geometry">
            <mxPoint x="27" y="57" as="offset" />
          </mxGeometry>
        </mxCell>
        <mxCell id="YfIU_cfu1i6WQ_l_rjaA-44" style="edgeStyle=orthogonalEdgeStyle;curved=1;rounded=0;orthogonalLoop=1;jettySize=auto;html=1;entryX=1;entryY=0.5;entryDx=0;entryDy=0;fontSize=12;exitX=0.5;exitY=0;exitDx=0;exitDy=0;" edge="1" parent="1" source="YfIU_cfu1i6WQ_l_rjaA-36" target="YfIU_cfu1i6WQ_l_rjaA-17">
          <mxGeometry relative="1" as="geometry">
            <Array as="points">
              <mxPoint x="660" y="968" />
            </Array>
          </mxGeometry>
        </mxCell>
        <mxCell id="YfIU_cfu1i6WQ_l_rjaA-45" value="&lt;font style=&quot;vertical-align: inherit;&quot;&gt;&lt;font style=&quot;vertical-align: inherit;&quot;&gt;INFO&lt;br&gt;PERSONAL&lt;br&gt;&lt;/font&gt;&lt;/font&gt;" style="edgeLabel;html=1;align=center;verticalAlign=middle;resizable=0;points=[];fontSize=12;" connectable="0" vertex="1" parent="YfIU_cfu1i6WQ_l_rjaA-44">
          <mxGeometry x="0.0375" y="2" relative="1" as="geometry">
            <mxPoint x="-4" y="28" as="offset" />
          </mxGeometry>
        </mxCell>
        <mxCell id="YfIU_cfu1i6WQ_l_rjaA-36" value="&lt;font style=&quot;vertical-align: inherit; font-size: 12px;&quot;&gt;&lt;font style=&quot;vertical-align: inherit; font-size: 12px;&quot;&gt;PERSONAL&lt;/font&gt;&lt;/font&gt;" style="shape=partialRectangle;whiteSpace=wrap;html=1;left=0;right=0;fillColor=none;fontSize=12;" vertex="1" parent="1">
          <mxGeometry x="616" y="1038" width="88" height="30" as="geometry" />
        </mxCell>
        <mxCell id="YfIU_cfu1i6WQ_l_rjaA-43" style="edgeStyle=orthogonalEdgeStyle;curved=1;rounded=0;orthogonalLoop=1;jettySize=auto;html=1;entryX=0.5;entryY=1;entryDx=0;entryDy=0;fontSize=12;exitX=0.5;exitY=1;exitDx=0;exitDy=0;" edge="1" parent="1" source="YfIU_cfu1i6WQ_l_rjaA-37" target="YfIU_cfu1i6WQ_l_rjaA-17">
          <mxGeometry relative="1" as="geometry">
            <Array as="points">
              <mxPoint x="369" y="1039" />
              <mxPoint x="539" y="1039" />
            </Array>
          </mxGeometry>
        </mxCell>
        <mxCell id="YfIU_cfu1i6WQ_l_rjaA-46" value="&lt;font style=&quot;vertical-align: inherit;&quot;&gt;&lt;font style=&quot;vertical-align: inherit;&quot;&gt;INFO&lt;br&gt;ESTUDIANTE&lt;br&gt;&lt;/font&gt;&lt;/font&gt;" style="edgeLabel;html=1;align=center;verticalAlign=middle;resizable=0;points=[];fontSize=12;" connectable="0" vertex="1" parent="YfIU_cfu1i6WQ_l_rjaA-43">
          <mxGeometry x="-0.0071" y="-2" relative="1" as="geometry">
            <mxPoint as="offset" />
          </mxGeometry>
        </mxCell>
        <mxCell id="YfIU_cfu1i6WQ_l_rjaA-37" value="&lt;font style=&quot;vertical-align: inherit; font-size: 12px;&quot;&gt;&lt;font style=&quot;vertical-align: inherit; font-size: 12px;&quot;&gt;ESTUDIANTE&lt;/font&gt;&lt;/font&gt;" style="shape=partialRectangle;whiteSpace=wrap;html=1;left=0;right=0;fillColor=none;fontSize=12;" vertex="1" parent="1">
          <mxGeometry x="325" y="949" width="88" height="30" as="geometry" />
        </mxCell>
        <mxCell id="YfIU_cfu1i6WQ_l_rjaA-41" value="&lt;font style=&quot;vertical-align: inherit;&quot;&gt;&lt;font style=&quot;vertical-align: inherit;&quot;&gt;PERSONAL&lt;br&gt;ACTUALIZADO&lt;br&gt;&lt;/font&gt;&lt;/font&gt;" style="edgeStyle=orthogonalEdgeStyle;curved=1;rounded=0;orthogonalLoop=1;jettySize=auto;html=1;fontSize=12;entryX=0.75;entryY=1;entryDx=0;entryDy=0;" edge="1" parent="1" source="YfIU_cfu1i6WQ_l_rjaA-17" target="ASO6ONYbp6WQh1iD9IR5-1">
          <mxGeometry relative="1" as="geometry" />
        </mxCell>
        <mxCell id="YfIU_cfu1i6WQ_l_rjaA-42" value="&lt;font style=&quot;vertical-align: inherit;&quot;&gt;&lt;font style=&quot;vertical-align: inherit;&quot;&gt;ESTUDIANTE&lt;br&gt;ACTUALIZADO&lt;br&gt;&lt;/font&gt;&lt;/font&gt;" style="edgeStyle=orthogonalEdgeStyle;curved=1;rounded=0;orthogonalLoop=1;jettySize=auto;html=1;fontSize=12;" edge="1" parent="1" source="YfIU_cfu1i6WQ_l_rjaA-17">
          <mxGeometry x="-0.0786" y="10" relative="1" as="geometry">
            <mxPoint x="499" y="759" as="targetPoint" />
            <Array as="points">
              <mxPoint x="449" y="968" />
              <mxPoint x="449" y="844" />
              <mxPoint x="499" y="844" />
              <mxPoint x="499" y="760" />
            </Array>
            <mxPoint as="offset" />
          </mxGeometry>
        </mxCell>
        <mxCell id="HS66bA9COVbjvonR8Qez-12" style="edgeStyle=orthogonalEdgeStyle;curved=1;rounded=0;orthogonalLoop=1;jettySize=auto;html=1;exitX=0.75;exitY=1;exitDx=0;exitDy=0;entryX=0;entryY=0;entryDx=0;entryDy=0;" edge="1" parent="1" source="YfIU_cfu1i6WQ_l_rjaA-59" target="7hv6oszFaFQT4d_ed0gU-21">
          <mxGeometry relative="1" as="geometry" />
        </mxCell>
        <mxCell id="z8-KbePBWn15m4s615-u-10" style="rounded=0;orthogonalLoop=1;jettySize=auto;html=1;exitX=1;exitY=0.5;exitDx=0;exitDy=0;entryX=0;entryY=0;entryDx=0;entryDy=0;edgeStyle=orthogonalEdgeStyle;curved=1;" edge="1" parent="1" source="YfIU_cfu1i6WQ_l_rjaA-59" target="z8-KbePBWn15m4s615-u-8">
          <mxGeometry relative="1" as="geometry" />
        </mxCell>
        <mxCell id="YfIU_cfu1i6WQ_l_rjaA-59" value="&lt;font style=&quot;vertical-align: inherit; font-size: 12px;&quot;&gt;&lt;font style=&quot;vertical-align: inherit; font-size: 12px;&quot;&gt;&lt;font style=&quot;vertical-align: inherit;&quot;&gt;&lt;font style=&quot;vertical-align: inherit;&quot;&gt;ESTUDIANTE&lt;/font&gt;&lt;/font&gt;&lt;/font&gt;&lt;/font&gt;" style="shape=partialRectangle;whiteSpace=wrap;html=1;left=0;right=0;fillColor=none;fontSize=12;" vertex="1" parent="1">
          <mxGeometry x="517.5000000000001" y="1334" width="80" height="25" as="geometry" />
        </mxCell>
        <mxCell id="yfKugQGFmToWZsmdqOhB-5" style="edgeStyle=orthogonalEdgeStyle;curved=1;rounded=0;orthogonalLoop=1;jettySize=auto;html=1;exitX=1;exitY=0.5;exitDx=0;exitDy=0;startArrow=none;startFill=0;endArrow=classic;endFill=1;entryX=0;entryY=0.5;entryDx=0;entryDy=0;" edge="1" parent="1" source="CnbhZ-RmkQytlQboRpyD-32" target="7hv6oszFaFQT4d_ed0gU-20">
          <mxGeometry relative="1" as="geometry">
            <mxPoint x="2050" y="270" as="targetPoint" />
          </mxGeometry>
        </mxCell>
        <mxCell id="yfKugQGFmToWZsmdqOhB-6" value="&lt;font style=&quot;vertical-align: inherit;&quot;&gt;&lt;font style=&quot;vertical-align: inherit;&quot;&gt;SOLICITUD&lt;br&gt;&lt;/font&gt;&lt;/font&gt;&lt;font style=&quot;vertical-align: inherit;&quot;&gt;&lt;font style=&quot;vertical-align: inherit;&quot;&gt;CUPOS&lt;/font&gt;&lt;/font&gt;" style="edgeLabel;html=1;align=center;verticalAlign=middle;resizable=0;points=[];" connectable="0" vertex="1" parent="yfKugQGFmToWZsmdqOhB-5">
          <mxGeometry x="0.2226" y="-5" relative="1" as="geometry">
            <mxPoint x="-6" y="21" as="offset" />
          </mxGeometry>
        </mxCell>
        <mxCell id="ASO6ONYbp6WQh1iD9IR5-1" value="" style="shape=partialRectangle;whiteSpace=wrap;html=1;left=0;right=0;fillColor=none;fontSize=24;" vertex="1" parent="1">
          <mxGeometry x="489" y="730.25" width="95" height="30" as="geometry" />
        </mxCell>
        <mxCell id="ASO6ONYbp6WQh1iD9IR5-2" value="&lt;font style=&quot;font-size: 15px;&quot;&gt;USUARIOS&lt;/font&gt;" style="text;html=1;strokeColor=none;fillColor=none;align=center;verticalAlign=middle;whiteSpace=wrap;rounded=0;strokeWidth=5;" vertex="1" parent="1">
          <mxGeometry x="506.5" y="730.25" width="60" height="30" as="geometry" />
        </mxCell>
        <mxCell id="ASO6ONYbp6WQh1iD9IR5-3" style="edgeStyle=orthogonalEdgeStyle;rounded=0;orthogonalLoop=1;jettySize=auto;html=1;exitX=0.5;exitY=1;exitDx=0;exitDy=0;entryX=0.5;entryY=0;entryDx=0;entryDy=0;fontSize=15;curved=1;" edge="1" parent="1" source="YfIU_cfu1i6WQ_l_rjaA-14" target="ASO6ONYbp6WQh1iD9IR5-2">
          <mxGeometry relative="1" as="geometry" />
        </mxCell>
        <mxCell id="ASO6ONYbp6WQh1iD9IR5-4" value="&lt;font style=&quot;font-size: 10px;&quot;&gt;USUARIOS&amp;nbsp;&lt;br&gt;ACTUALIZADOS&lt;/font&gt;" style="edgeLabel;html=1;align=center;verticalAlign=middle;resizable=0;points=[];fontSize=15;" connectable="0" vertex="1" parent="ASO6ONYbp6WQh1iD9IR5-3">
          <mxGeometry x="-0.3326" y="-1" relative="1" as="geometry">
            <mxPoint x="15" y="20" as="offset" />
          </mxGeometry>
        </mxCell>
        <mxCell id="ASO6ONYbp6WQh1iD9IR5-8" value="" style="group" connectable="0" vertex="1" parent="1">
          <mxGeometry x="567.5" y="1526.42" width="110.00000000000003" height="30" as="geometry" />
        </mxCell>
        <mxCell id="ASO6ONYbp6WQh1iD9IR5-9" value="" style="shape=partialRectangle;whiteSpace=wrap;html=1;left=0;right=0;fillColor=none;fontSize=24;" vertex="1" parent="ASO6ONYbp6WQh1iD9IR5-8">
          <mxGeometry x="11" width="88" height="30" as="geometry" />
        </mxCell>
        <mxCell id="ASO6ONYbp6WQh1iD9IR5-10" value="ACUDIENTE" style="text;html=1;strokeColor=none;fillColor=none;align=center;verticalAlign=middle;whiteSpace=wrap;rounded=0;" vertex="1" parent="ASO6ONYbp6WQh1iD9IR5-8">
          <mxGeometry y="7.5" width="110.00000000000003" height="15" as="geometry" />
        </mxCell>
        <mxCell id="ASO6ONYbp6WQh1iD9IR5-112" value="&lt;span style=&quot;font-size: 15px;&quot;&gt;NIVEL 3: PROCESO 2.2 CREAR CITA&lt;/span&gt;" style="rounded=1;whiteSpace=wrap;html=1;" vertex="1" parent="1">
          <mxGeometry x="1451.25" y="602.0000000000001" width="330" height="40" as="geometry" />
        </mxCell>
        <mxCell id="ASO6ONYbp6WQh1iD9IR5-113" value="" style="group" connectable="0" vertex="1" parent="1">
          <mxGeometry x="1263" y="762" width="120" height="80" as="geometry" />
        </mxCell>
        <mxCell id="ASO6ONYbp6WQh1iD9IR5-114" value="ELIMINAR &lt;br&gt;CITACIÓN" style="ellipse;whiteSpace=wrap;html=1;" vertex="1" parent="ASO6ONYbp6WQh1iD9IR5-113">
          <mxGeometry width="120" height="80" as="geometry" />
        </mxCell>
        <mxCell id="ASO6ONYbp6WQh1iD9IR5-115" value="2.2.3" style="text;html=1;strokeColor=none;fillColor=none;align=center;verticalAlign=middle;whiteSpace=wrap;rounded=0;" vertex="1" parent="ASO6ONYbp6WQh1iD9IR5-113">
          <mxGeometry x="45" y="10" width="30" height="10" as="geometry" />
        </mxCell>
        <mxCell id="ASO6ONYbp6WQh1iD9IR5-116" value="" style="group" connectable="0" vertex="1" parent="1">
          <mxGeometry x="1605" y="1002" width="120" height="80" as="geometry" />
        </mxCell>
        <mxCell id="ASO6ONYbp6WQh1iD9IR5-117" value="MODIFICAR &lt;br&gt;CITACIÓN" style="ellipse;whiteSpace=wrap;html=1;" vertex="1" parent="ASO6ONYbp6WQh1iD9IR5-116">
          <mxGeometry width="120" height="80" as="geometry" />
        </mxCell>
        <mxCell id="ASO6ONYbp6WQh1iD9IR5-118" value="2.2.2" style="text;html=1;strokeColor=none;fillColor=none;align=center;verticalAlign=middle;whiteSpace=wrap;rounded=0;" vertex="1" parent="ASO6ONYbp6WQh1iD9IR5-116">
          <mxGeometry x="45" y="10" width="30" height="10" as="geometry" />
        </mxCell>
        <mxCell id="ASO6ONYbp6WQh1iD9IR5-119" value="" style="group" connectable="0" vertex="1" parent="1">
          <mxGeometry x="1600" y="702" width="120" height="80" as="geometry" />
        </mxCell>
        <mxCell id="ASO6ONYbp6WQh1iD9IR5-120" value="CREAR&amp;nbsp;&lt;br&gt;CITACIÓN" style="ellipse;whiteSpace=wrap;html=1;" vertex="1" parent="ASO6ONYbp6WQh1iD9IR5-119">
          <mxGeometry width="120" height="80" as="geometry" />
        </mxCell>
        <mxCell id="ASO6ONYbp6WQh1iD9IR5-121" value="2.2.1" style="text;html=1;strokeColor=none;fillColor=none;align=center;verticalAlign=middle;whiteSpace=wrap;rounded=0;" vertex="1" parent="ASO6ONYbp6WQh1iD9IR5-119">
          <mxGeometry x="45" y="10" width="30" height="10" as="geometry" />
        </mxCell>
        <mxCell id="ASO6ONYbp6WQh1iD9IR5-122" value="CITACION" style="text;html=1;strokeColor=none;fillColor=none;align=center;verticalAlign=middle;whiteSpace=wrap;rounded=0;" vertex="1" parent="1">
          <mxGeometry x="1490" y="843.6999999999998" width="100.00000000000001" height="12.5" as="geometry" />
        </mxCell>
        <mxCell id="ASO6ONYbp6WQh1iD9IR5-123" style="edgeStyle=orthogonalEdgeStyle;curved=1;rounded=0;orthogonalLoop=1;jettySize=auto;html=1;exitX=0.5;exitY=0;exitDx=0;exitDy=0;entryX=0;entryY=0.5;entryDx=0;entryDy=0;fontSize=10;endArrow=none;endFill=0;startArrow=classic;startFill=1;" edge="1" parent="1" source="ASO6ONYbp6WQh1iD9IR5-125" target="ASO6ONYbp6WQh1iD9IR5-120">
          <mxGeometry relative="1" as="geometry" />
        </mxCell>
        <mxCell id="ASO6ONYbp6WQh1iD9IR5-124" style="edgeStyle=orthogonalEdgeStyle;curved=1;rounded=0;orthogonalLoop=1;jettySize=auto;html=1;exitX=0.5;exitY=1;exitDx=0;exitDy=0;entryX=0;entryY=0.5;entryDx=0;entryDy=0;fontSize=10;" edge="1" parent="1" source="ASO6ONYbp6WQh1iD9IR5-125" target="ASO6ONYbp6WQh1iD9IR5-117">
          <mxGeometry relative="1" as="geometry" />
        </mxCell>
        <mxCell id="ASO6ONYbp6WQh1iD9IR5-125" value="" style="shape=partialRectangle;whiteSpace=wrap;html=1;left=0;right=0;fillColor=none;fontSize=24;" vertex="1" parent="1">
          <mxGeometry x="1491.25" y="835.9499999999998" width="97.5" height="28" as="geometry" />
        </mxCell>
        <mxCell id="ASO6ONYbp6WQh1iD9IR5-126" value="INFO&lt;br&gt;CITACION" style="edgeLabel;html=1;align=center;verticalAlign=middle;resizable=0;points=[];" connectable="0" vertex="1" parent="1">
          <mxGeometry x="1545" y="792" as="geometry" />
        </mxCell>
        <mxCell id="ASO6ONYbp6WQh1iD9IR5-127" value="" style="group" connectable="0" vertex="1" parent="1">
          <mxGeometry x="1610" y="862" width="110" height="30" as="geometry" />
        </mxCell>
        <mxCell id="ASO6ONYbp6WQh1iD9IR5-128" value="" style="shape=partialRectangle;whiteSpace=wrap;html=1;left=0;right=0;fillColor=none;fontSize=24;" vertex="1" parent="ASO6ONYbp6WQh1iD9IR5-127">
          <mxGeometry x="11" width="88" height="30" as="geometry" />
        </mxCell>
        <mxCell id="ASO6ONYbp6WQh1iD9IR5-129" value="ACUDIENTE" style="text;html=1;strokeColor=none;fillColor=none;align=center;verticalAlign=middle;whiteSpace=wrap;rounded=0;" vertex="1" parent="ASO6ONYbp6WQh1iD9IR5-127">
          <mxGeometry y="7.5" width="110.00000000000003" height="15" as="geometry" />
        </mxCell>
        <mxCell id="ASO6ONYbp6WQh1iD9IR5-130" style="edgeStyle=orthogonalEdgeStyle;curved=1;rounded=0;orthogonalLoop=1;jettySize=auto;html=1;exitX=0.5;exitY=0;exitDx=0;exitDy=0;entryX=0.5;entryY=1;entryDx=0;entryDy=0;fontSize=10;" edge="1" parent="1" source="ASO6ONYbp6WQh1iD9IR5-128" target="ASO6ONYbp6WQh1iD9IR5-120">
          <mxGeometry relative="1" as="geometry" />
        </mxCell>
        <mxCell id="ASO6ONYbp6WQh1iD9IR5-131" value="INFO&lt;br&gt;ACUDIENTE" style="edgeLabel;html=1;align=center;verticalAlign=middle;resizable=0;points=[];" connectable="0" vertex="1" parent="1">
          <mxGeometry x="1660" y="822" as="geometry" />
        </mxCell>
        <mxCell id="ASO6ONYbp6WQh1iD9IR5-132" value="" style="group" connectable="0" vertex="1" parent="1">
          <mxGeometry x="1730" y="842" width="110" height="30" as="geometry" />
        </mxCell>
        <mxCell id="ASO6ONYbp6WQh1iD9IR5-133" value="" style="shape=partialRectangle;whiteSpace=wrap;html=1;left=0;right=0;fillColor=none;fontSize=24;" vertex="1" parent="ASO6ONYbp6WQh1iD9IR5-132">
          <mxGeometry x="11" width="88" height="30" as="geometry" />
        </mxCell>
        <mxCell id="ASO6ONYbp6WQh1iD9IR5-134" value="PERSONAL" style="text;html=1;strokeColor=none;fillColor=none;align=center;verticalAlign=middle;whiteSpace=wrap;rounded=0;" vertex="1" parent="ASO6ONYbp6WQh1iD9IR5-132">
          <mxGeometry y="7.5" width="110.00000000000001" height="15" as="geometry" />
        </mxCell>
        <mxCell id="ASO6ONYbp6WQh1iD9IR5-135" style="edgeStyle=orthogonalEdgeStyle;curved=1;rounded=0;orthogonalLoop=1;jettySize=auto;html=1;exitX=0.5;exitY=0;exitDx=0;exitDy=0;entryX=1;entryY=0.5;entryDx=0;entryDy=0;fontSize=10;" edge="1" parent="1" source="ASO6ONYbp6WQh1iD9IR5-133" target="ASO6ONYbp6WQh1iD9IR5-120">
          <mxGeometry relative="1" as="geometry" />
        </mxCell>
        <mxCell id="ASO6ONYbp6WQh1iD9IR5-136" value="INFO &lt;br&gt;PERSONAL" style="edgeLabel;html=1;align=center;verticalAlign=middle;resizable=0;points=[];" connectable="0" vertex="1" parent="1">
          <mxGeometry x="1784.9999999999998" y="772" as="geometry">
            <mxPoint x="-9" y="-1" as="offset" />
          </mxGeometry>
        </mxCell>
        <mxCell id="ASO6ONYbp6WQh1iD9IR5-137" style="edgeStyle=orthogonalEdgeStyle;curved=1;rounded=0;orthogonalLoop=1;jettySize=auto;html=1;exitX=0.5;exitY=1;exitDx=0;exitDy=0;entryX=0.5;entryY=0;entryDx=0;entryDy=0;fontSize=10;" edge="1" parent="1" source="ASO6ONYbp6WQh1iD9IR5-128" target="ASO6ONYbp6WQh1iD9IR5-117">
          <mxGeometry relative="1" as="geometry" />
        </mxCell>
        <mxCell id="ASO6ONYbp6WQh1iD9IR5-138" style="edgeStyle=orthogonalEdgeStyle;curved=1;rounded=0;orthogonalLoop=1;jettySize=auto;html=1;exitX=0.5;exitY=1;exitDx=0;exitDy=0;entryX=1;entryY=0.5;entryDx=0;entryDy=0;fontSize=10;" edge="1" parent="1" source="ASO6ONYbp6WQh1iD9IR5-133" target="ASO6ONYbp6WQh1iD9IR5-117">
          <mxGeometry relative="1" as="geometry" />
        </mxCell>
        <mxCell id="ASO6ONYbp6WQh1iD9IR5-139" value="INFO&lt;br&gt;CITACION" style="edgeLabel;html=1;align=center;verticalAlign=middle;resizable=0;points=[];" connectable="0" vertex="1" parent="1">
          <mxGeometry x="1545" y="943.75" as="geometry" />
        </mxCell>
        <mxCell id="ASO6ONYbp6WQh1iD9IR5-140" value="INFO&lt;br&gt;ACUDIENTE" style="edgeLabel;html=1;align=center;verticalAlign=middle;resizable=0;points=[];" connectable="0" vertex="1" parent="1">
          <mxGeometry x="1670" y="943.75" as="geometry" />
        </mxCell>
        <mxCell id="ASO6ONYbp6WQh1iD9IR5-141" value="INFO &lt;br&gt;PERSONAL" style="edgeLabel;html=1;align=center;verticalAlign=middle;resizable=0;points=[];" connectable="0" vertex="1" parent="1">
          <mxGeometry x="1789.9999999999998" y="912" as="geometry">
            <mxPoint x="-9" y="-1" as="offset" />
          </mxGeometry>
        </mxCell>
        <mxCell id="ASO6ONYbp6WQh1iD9IR5-145" style="edgeStyle=orthogonalEdgeStyle;curved=1;rounded=0;orthogonalLoop=1;jettySize=auto;html=1;exitX=0.5;exitY=1;exitDx=0;exitDy=0;fontSize=10;" edge="1" parent="1" source="ASO6ONYbp6WQh1iD9IR5-117" target="ASO6ONYbp6WQh1iD9IR5-125">
          <mxGeometry relative="1" as="geometry">
            <Array as="points">
              <mxPoint x="1665" y="1101.62" />
              <mxPoint x="1500" y="1101.62" />
            </Array>
          </mxGeometry>
        </mxCell>
        <mxCell id="ASO6ONYbp6WQh1iD9IR5-146" value="CITACIÓN&lt;br&gt;MODIFICADA" style="edgeLabel;html=1;align=center;verticalAlign=middle;resizable=0;points=[];fontSize=10;" connectable="0" vertex="1" parent="ASO6ONYbp6WQh1iD9IR5-145">
          <mxGeometry x="-0.0164" y="38" relative="1" as="geometry">
            <mxPoint x="43" y="-70" as="offset" />
          </mxGeometry>
        </mxCell>
        <mxCell id="ASO6ONYbp6WQh1iD9IR5-149" style="edgeStyle=orthogonalEdgeStyle;curved=1;rounded=0;orthogonalLoop=1;jettySize=auto;html=1;fontSize=10;exitX=0;exitY=0.25;exitDx=0;exitDy=0;" edge="1" parent="1" source="ASO6ONYbp6WQh1iD9IR5-122" target="ASO6ONYbp6WQh1iD9IR5-114">
          <mxGeometry relative="1" as="geometry">
            <mxPoint x="1183" y="866.9836363636364" as="sourcePoint" />
          </mxGeometry>
        </mxCell>
        <mxCell id="ASO6ONYbp6WQh1iD9IR5-150" value="INFO&lt;br&gt;CITACIÓN" style="edgeLabel;html=1;align=center;verticalAlign=middle;resizable=0;points=[];fontSize=10;" connectable="0" vertex="1" parent="ASO6ONYbp6WQh1iD9IR5-149">
          <mxGeometry x="-0.3405" y="1" relative="1" as="geometry">
            <mxPoint x="-28" y="2" as="offset" />
          </mxGeometry>
        </mxCell>
        <mxCell id="ASO6ONYbp6WQh1iD9IR5-151" style="edgeStyle=orthogonalEdgeStyle;curved=1;rounded=0;orthogonalLoop=1;jettySize=auto;html=1;exitX=0.5;exitY=0;exitDx=0;exitDy=0;entryX=0.25;entryY=0;entryDx=0;entryDy=0;fontSize=10;" edge="1" parent="1" source="ASO6ONYbp6WQh1iD9IR5-114" target="ASO6ONYbp6WQh1iD9IR5-125">
          <mxGeometry relative="1" as="geometry">
            <mxPoint x="1150" y="852" as="targetPoint" />
          </mxGeometry>
        </mxCell>
        <mxCell id="ASO6ONYbp6WQh1iD9IR5-152" value="CITACIÓN&lt;br&gt;ELIMINADA" style="edgeLabel;html=1;align=center;verticalAlign=middle;resizable=0;points=[];fontSize=10;" connectable="0" vertex="1" parent="ASO6ONYbp6WQh1iD9IR5-151">
          <mxGeometry x="-0.0588" y="6" relative="1" as="geometry">
            <mxPoint x="-10" y="6" as="offset" />
          </mxGeometry>
        </mxCell>
        <mxCell id="7hv6oszFaFQT4d_ed0gU-3" style="edgeStyle=none;rounded=0;orthogonalLoop=1;jettySize=auto;html=1;fontSize=9;exitX=1;exitY=0.75;exitDx=0;exitDy=0;entryX=0.041;entryY=0.721;entryDx=0;entryDy=0;entryPerimeter=0;" edge="1" parent="1" source="CnbhZ-RmkQytlQboRpyD-25" target="FWfu6WNcgX2FTxLPgsbS-2">
          <mxGeometry relative="1" as="geometry">
            <mxPoint x="240.80000000000007" y="297.46112000000005" as="sourcePoint" />
            <mxPoint x="490" y="297" as="targetPoint" />
          </mxGeometry>
        </mxCell>
        <mxCell id="7hv6oszFaFQT4d_ed0gU-4" value="&lt;font style=&quot;vertical-align: inherit;&quot;&gt;&lt;font style=&quot;vertical-align: inherit;&quot;&gt;&lt;font style=&quot;vertical-align: inherit;&quot;&gt;&lt;font style=&quot;vertical-align: inherit;&quot;&gt;&lt;font style=&quot;vertical-align: inherit;&quot;&gt;&lt;font style=&quot;vertical-align: inherit;&quot;&gt;CREAR CITA&lt;/font&gt;&lt;/font&gt;&lt;/font&gt;&lt;/font&gt;&lt;/font&gt;&lt;/font&gt;" style="edgeLabel;html=1;align=center;verticalAlign=middle;resizable=0;points=[];fontSize=11;" connectable="0" vertex="1" parent="7hv6oszFaFQT4d_ed0gU-3">
          <mxGeometry x="-0.2069" y="-1" relative="1" as="geometry">
            <mxPoint x="10" y="-1" as="offset" />
          </mxGeometry>
        </mxCell>
        <mxCell id="7hv6oszFaFQT4d_ed0gU-5" style="edgeStyle=none;rounded=0;orthogonalLoop=1;jettySize=auto;html=1;fontSize=9;exitX=0.994;exitY=0.445;exitDx=0;exitDy=0;entryX=0;entryY=0.5;entryDx=0;entryDy=0;exitPerimeter=0;" edge="1" parent="1" source="FWfu6WNcgX2FTxLPgsbS-2" target="xIkOduNl5AUU66lp3AHa-24">
          <mxGeometry relative="1" as="geometry">
            <mxPoint x="798.9999999999998" y="259.49" as="targetPoint" />
            <mxPoint x="629.6800000000001" y="256.99739999999997" as="sourcePoint" />
          </mxGeometry>
        </mxCell>
        <mxCell id="7hv6oszFaFQT4d_ed0gU-6" value="&lt;font style=&quot;vertical-align: inherit;&quot;&gt;&lt;font style=&quot;vertical-align: inherit;&quot;&gt;INFORMACION CUPOS&lt;/font&gt;&lt;/font&gt;" style="edgeLabel;html=1;align=center;verticalAlign=middle;resizable=0;points=[];fontSize=11;" connectable="0" vertex="1" parent="7hv6oszFaFQT4d_ed0gU-5">
          <mxGeometry x="-0.2448" y="-1" relative="1" as="geometry">
            <mxPoint x="19" y="-1" as="offset" />
          </mxGeometry>
        </mxCell>
        <mxCell id="7hv6oszFaFQT4d_ed0gU-11" value="" style="group" connectable="0" vertex="1" parent="1">
          <mxGeometry x="1060" y="235.50000000000003" width="110" height="30" as="geometry" />
        </mxCell>
        <mxCell id="7hv6oszFaFQT4d_ed0gU-12" value="" style="shape=partialRectangle;whiteSpace=wrap;html=1;left=0;right=0;fillColor=none;fontSize=24;" vertex="1" parent="7hv6oszFaFQT4d_ed0gU-11">
          <mxGeometry x="10" y="-1" width="88" height="30" as="geometry" />
        </mxCell>
        <mxCell id="7hv6oszFaFQT4d_ed0gU-15" style="edgeStyle=orthogonalEdgeStyle;rounded=0;orthogonalLoop=1;jettySize=auto;html=1;entryX=0.058;entryY=0.275;entryDx=0;entryDy=0;entryPerimeter=0;curved=1;" edge="1" parent="1" source="7hv6oszFaFQT4d_ed0gU-13" target="CnbhZ-RmkQytlQboRpyD-8">
          <mxGeometry relative="1" as="geometry" />
        </mxCell>
        <mxCell id="7hv6oszFaFQT4d_ed0gU-16" value="&lt;font style=&quot;vertical-align: inherit;&quot;&gt;&lt;font style=&quot;vertical-align: inherit;&quot;&gt;INFO&lt;br&gt;ACUDIENTE&lt;br&gt;&lt;/font&gt;&lt;/font&gt;" style="edgeLabel;html=1;align=center;verticalAlign=middle;resizable=0;points=[];" connectable="0" vertex="1" parent="7hv6oszFaFQT4d_ed0gU-15">
          <mxGeometry x="0.2511" y="5" relative="1" as="geometry">
            <mxPoint x="-41" y="13" as="offset" />
          </mxGeometry>
        </mxCell>
        <mxCell id="7hv6oszFaFQT4d_ed0gU-13" value="ACUDIENTE" style="text;html=1;strokeColor=none;fillColor=none;align=center;verticalAlign=middle;whiteSpace=wrap;rounded=0;" vertex="1" parent="1">
          <mxGeometry x="1059" y="241.03" width="110.00000000000003" height="15" as="geometry" />
        </mxCell>
        <mxCell id="7hv6oszFaFQT4d_ed0gU-18" style="edgeStyle=orthogonalEdgeStyle;curved=1;rounded=0;orthogonalLoop=1;jettySize=auto;html=1;entryX=0.5;entryY=1;entryDx=0;entryDy=0;exitX=0;exitY=0.5;exitDx=0;exitDy=0;" edge="1" parent="1" source="CnbhZ-RmkQytlQboRpyD-8" target="7hv6oszFaFQT4d_ed0gU-12">
          <mxGeometry relative="1" as="geometry">
            <Array as="points">
              <mxPoint x="1290" y="330" />
              <mxPoint x="1114" y="330" />
            </Array>
          </mxGeometry>
        </mxCell>
        <mxCell id="7hv6oszFaFQT4d_ed0gU-20" value="&lt;font style=&quot;vertical-align: inherit;&quot;&gt;&lt;font style=&quot;vertical-align: inherit;&quot;&gt;&lt;font style=&quot;vertical-align: inherit;&quot;&gt;&lt;font style=&quot;vertical-align: inherit;&quot;&gt;CUPOS&lt;/font&gt;&lt;/font&gt;&lt;/font&gt;&lt;/font&gt;" style="shape=partialRectangle;whiteSpace=wrap;html=1;left=0;right=0;fillColor=none;fontSize=11;" vertex="1" parent="1">
          <mxGeometry x="1991.3999999999999" y="215.24" width="60" height="28" as="geometry" />
        </mxCell>
        <mxCell id="HS66bA9COVbjvonR8Qez-9" style="edgeStyle=orthogonalEdgeStyle;curved=1;rounded=0;orthogonalLoop=1;jettySize=auto;html=1;exitX=0;exitY=1;exitDx=0;exitDy=0;entryX=1;entryY=0.5;entryDx=0;entryDy=0;" edge="1" parent="1" source="7hv6oszFaFQT4d_ed0gU-21" target="7hv6oszFaFQT4d_ed0gU-36">
          <mxGeometry relative="1" as="geometry" />
        </mxCell>
        <mxCell id="HS66bA9COVbjvonR8Qez-14" value="SOLICITUD&lt;br&gt;CUPOS" style="edgeLabel;html=1;align=center;verticalAlign=middle;resizable=0;points=[];" connectable="0" vertex="1" parent="HS66bA9COVbjvonR8Qez-9">
          <mxGeometry x="0.027" y="-6" relative="1" as="geometry">
            <mxPoint x="23" y="2" as="offset" />
          </mxGeometry>
        </mxCell>
        <mxCell id="z8-KbePBWn15m4s615-u-7" style="edgeStyle=orthogonalEdgeStyle;rounded=0;orthogonalLoop=1;jettySize=auto;html=1;exitX=1;exitY=0.5;exitDx=0;exitDy=0;entryX=1;entryY=0.75;entryDx=0;entryDy=0;curved=1;" edge="1" parent="1" source="z8-KbePBWn15m4s615-u-8" target="z8-KbePBWn15m4s615-u-3">
          <mxGeometry relative="1" as="geometry" />
        </mxCell>
        <mxCell id="7hv6oszFaFQT4d_ed0gU-21" value="&lt;font style=&quot;vertical-align: inherit;&quot;&gt;&lt;font style=&quot;vertical-align: inherit;&quot;&gt;SOLICITUD CUPOS&lt;br&gt;&lt;/font&gt;&lt;/font&gt;" style="ellipse;whiteSpace=wrap;html=1;fontStyle=0" vertex="1" parent="1">
          <mxGeometry x="377.5" y="1456.42" width="120" height="80" as="geometry" />
        </mxCell>
        <mxCell id="7hv6oszFaFQT4d_ed0gU-22" value="&lt;font style=&quot;vertical-align: inherit;&quot;&gt;&lt;font style=&quot;vertical-align: inherit;&quot;&gt;2.1&lt;/font&gt;&lt;/font&gt;" style="text;html=1;strokeColor=none;fillColor=none;align=center;verticalAlign=middle;whiteSpace=wrap;rounded=0;" vertex="1" parent="1">
          <mxGeometry x="421.5" y="1466.42" width="30" height="10" as="geometry" />
        </mxCell>
        <mxCell id="7hv6oszFaFQT4d_ed0gU-37" value="&lt;font style=&quot;vertical-align: inherit;&quot;&gt;&lt;font style=&quot;vertical-align: inherit;&quot;&gt;CUPOS&lt;/font&gt;&lt;/font&gt;" style="text;html=1;strokeColor=none;fillColor=none;align=center;verticalAlign=middle;whiteSpace=wrap;rounded=0;" vertex="1" parent="1">
          <mxGeometry x="158" y="1473.92" width="80" height="15" as="geometry" />
        </mxCell>
        <mxCell id="7hv6oszFaFQT4d_ed0gU-36" value="" style="shape=partialRectangle;whiteSpace=wrap;html=1;left=0;right=0;fillColor=none;fontSize=24;" vertex="1" parent="1">
          <mxGeometry x="169" y="1466.42" width="58" height="30" as="geometry" />
        </mxCell>
        <mxCell id="HS66bA9COVbjvonR8Qez-10" style="edgeStyle=orthogonalEdgeStyle;curved=1;rounded=0;orthogonalLoop=1;jettySize=auto;html=1;exitX=0;exitY=0.75;exitDx=0;exitDy=0;entryX=0.5;entryY=1;entryDx=0;entryDy=0;" edge="1" parent="1" source="ASO6ONYbp6WQh1iD9IR5-10" target="7hv6oszFaFQT4d_ed0gU-21">
          <mxGeometry relative="1" as="geometry" />
        </mxCell>
        <mxCell id="HS66bA9COVbjvonR8Qez-11" value="INFO&lt;br&gt;ACUDIENTE" style="edgeLabel;html=1;align=center;verticalAlign=middle;resizable=0;points=[];fontSize=10;" connectable="0" vertex="1" parent="1">
          <mxGeometry x="337.4999999999997" y="1541.42" as="geometry">
            <mxPoint x="167" y="15" as="offset" />
          </mxGeometry>
        </mxCell>
        <mxCell id="HS66bA9COVbjvonR8Qez-13" value="INFO&lt;br style=&quot;border-color: var(--border-color); font-size: 12px;&quot;&gt;&lt;span style=&quot;font-size: 12px;&quot;&gt;ESTUDIANTE&lt;/span&gt;" style="edgeLabel;html=1;align=center;verticalAlign=middle;resizable=0;points=[];" connectable="0" vertex="1" parent="1">
          <mxGeometry x="497.5000000000001" y="1406.42" as="geometry">
            <mxPoint x="-6" y="-1" as="offset" />
          </mxGeometry>
        </mxCell>
        <mxCell id="z8-KbePBWn15m4s615-u-1" value="" style="group" connectable="0" vertex="1" parent="1">
          <mxGeometry x="768" y="1334" width="110" height="30" as="geometry" />
        </mxCell>
        <mxCell id="z8-KbePBWn15m4s615-u-2" value="" style="shape=partialRectangle;whiteSpace=wrap;html=1;left=0;right=0;fillColor=none;fontSize=24;" vertex="1" parent="z8-KbePBWn15m4s615-u-1">
          <mxGeometry x="11" width="88" height="30" as="geometry" />
        </mxCell>
        <mxCell id="z8-KbePBWn15m4s615-u-3" value="CITACION" style="text;html=1;strokeColor=none;fillColor=none;align=center;verticalAlign=middle;whiteSpace=wrap;rounded=0;" vertex="1" parent="z8-KbePBWn15m4s615-u-1">
          <mxGeometry y="7.5" width="110.00000000000001" height="15" as="geometry" />
        </mxCell>
        <mxCell id="z8-KbePBWn15m4s615-u-5" value="INFO &lt;br&gt;CITACIONES" style="edgeLabel;html=1;align=center;verticalAlign=middle;resizable=0;points=[];rotation=0;" connectable="0" vertex="1" parent="1">
          <mxGeometry x="888.001800601344" y="1406.4177083462941" as="geometry">
            <mxPoint x="2" y="5" as="offset" />
          </mxGeometry>
        </mxCell>
        <mxCell id="z8-KbePBWn15m4s615-u-8" value="&lt;font style=&quot;vertical-align: inherit;&quot;&gt;&lt;font style=&quot;vertical-align: inherit;&quot;&gt;CREAR CITACION&amp;nbsp;&lt;br&gt;&lt;/font&gt;&lt;/font&gt;" style="ellipse;whiteSpace=wrap;html=1;fontStyle=0" vertex="1" parent="1">
          <mxGeometry x="728" y="1431.42" width="120" height="80" as="geometry" />
        </mxCell>
        <mxCell id="z8-KbePBWn15m4s615-u-9" value="&lt;font style=&quot;vertical-align: inherit;&quot;&gt;&lt;font style=&quot;vertical-align: inherit;&quot;&gt;2.2&lt;/font&gt;&lt;/font&gt;" style="text;html=1;strokeColor=none;fillColor=none;align=center;verticalAlign=middle;whiteSpace=wrap;rounded=0;" vertex="1" parent="1">
          <mxGeometry x="770.5" y="1439" width="30" height="10" as="geometry" />
        </mxCell>
        <mxCell id="z8-KbePBWn15m4s615-u-11" value="INFO&lt;br style=&quot;border-color: var(--border-color); font-size: 12px;&quot;&gt;&lt;span style=&quot;font-size: 12px;&quot;&gt;ESTUDIANTE&lt;/span&gt;" style="edgeLabel;html=1;align=center;verticalAlign=middle;resizable=0;points=[];" connectable="0" vertex="1" parent="1">
          <mxGeometry x="708.0000000000001" y="1366.38" as="geometry">
            <mxPoint x="-6" y="-1" as="offset" />
          </mxGeometry>
        </mxCell>
        <mxCell id="z8-KbePBWn15m4s615-u-12" style="edgeStyle=orthogonalEdgeStyle;rounded=0;orthogonalLoop=1;jettySize=auto;html=1;exitX=1;exitY=0.5;exitDx=0;exitDy=0;entryX=0.5;entryY=1;entryDx=0;entryDy=0;curved=1;" edge="1" parent="1" source="ASO6ONYbp6WQh1iD9IR5-9" target="z8-KbePBWn15m4s615-u-8">
          <mxGeometry relative="1" as="geometry" />
        </mxCell>
        <mxCell id="z8-KbePBWn15m4s615-u-13" value="INFO&lt;br&gt;ACUDIENTE" style="edgeLabel;html=1;align=center;verticalAlign=middle;resizable=0;points=[];fontSize=10;" connectable="0" vertex="1" parent="1">
          <mxGeometry x="567.4999999999998" y="1524" as="geometry">
            <mxPoint x="167" y="15" as="offset" />
          </mxGeometry>
        </mxCell>
      </root>
    </mxGraphModel>
  </diagram>
</mxfile>
